<svg xmlns="http://www.w3.org/2000/svg" viewBox="0 0 200 60" width="200" height="60">
  <!-- JETFAY Logo (白色版本) -->
  
  <!-- 主标志 -->
  <g fill="#ffffff">
    <!-- 字母J -->
    <path d="M10,10 L25,10 L25,15 L18,15 L18,40 L10,40 Z" />
    
    <!-- 字母E -->
    <path d="M30,10 L50,10 L50,15 L38,15 L38,22 L48,22 L48,27 L38,27 L38,35 L50,35 L50,40 L30,40 Z" />
    
    <!-- 字母T -->
    <path d="M55,10 L75,10 L75,15 L69,15 L69,40 L61,40 L61,15 L55,15 Z" />
    
    <!-- 字母F -->
    <path d="M80,10 L100,10 L100,15 L88,15 L88,22 L98,22 L98,27 L88,27 L88,40 L80,40 Z" />
    
    <!-- 字母A -->
    <path d="M105,10 L120,40 L112,40 L110,35 L100,35 L98,40 L90,40 L105,10 Z M105,25 L108,30 L102,30 Z" />
    
    <!-- 字母Y -->
    <path d="M125,10 L133,10 L140,25 L147,10 L155,10 L143,30 L143,40 L135,40 L135,30 Z" />
  </g>
  
  <!-- 飞机图标 -->
  <g fill="#ffffff">
    <!-- 机身 -->
    <path d="M170,20 L190,30 L170,40 L165,30 Z" />
    
    <!-- 机翼 -->
    <path d="M165,30 L155,35 L155,25 Z" />
    
    <!-- 尾翼 -->
    <path d="M170,25 L175,20 L175,25 Z" />
    <path d="M170,35 L175,40 L175,35 Z" />
  </g>
  
  <!-- 标语 -->
  <text x="100" y="55" font-family="Arial" font-size="8" fill="#ffffff" text-anchor="middle">引领航模技术创新的未来</text>
</svg>