<svg xmlns="http://www.w3.org/2000/svg" viewBox="0 0 100 100" width="100" height="100">
  <!-- 张航 - 专业航模比赛选手头像 -->
  <defs>
    <linearGradient id="bg-gradient-1" x1="0%" y1="0%" x2="100%" y2="100%">
      <stop offset="0%" stop-color="#3498db" />
      <stop offset="100%" stop-color="#2980b9" />
    </linearGradient>
  </defs>
  
  <!-- 背景圆形 -->
  <circle cx="50" cy="50" r="48" fill="url(#bg-gradient-1)" stroke="#fff" stroke-width="2" />
  
  <!-- 人物头像 -->
  <circle cx="50" cy="40" r="20" fill="#ecf0f1" />
  <path d="M50,60 L50,85 M35,70 L65,70" stroke="#ecf0f1" stroke-width="10" stroke-linecap="round" stroke-linejoin="round" />
  
  <!-- 飞行员装饰 -->
  <path d="M30,35 L70,35" stroke="#e74c3c" stroke-width="2" />
  <path d="M35,30 L65,30" stroke="#e74c3c" stroke-width="2" />
  <path d="M40,25 L60,25" stroke="#e74c3c" stroke-width="2" />
  
  <!-- 飞行员眼镜 -->
  <path d="M40,40 L60,40" stroke="#34495e" stroke-width="2" />
  <circle cx="43" cy="40" r="3" fill="#34495e" />
  <circle cx="57" cy="40" r="3" fill="#34495e" />
  
  <!-- 微笑 -->
  <path d="M40,45 Q50,55 60,45" stroke="#34495e" stroke-width="2" fill="none" />
  
  <!-- 装饰元素 - 小飞机 -->
  <path d="M15,15 L25,20 L15,25 Z" fill="#ecf0f1" />
  <path d="M85,15 L75,20 L85,25 Z" fill="#ecf0f1" />
  
  <!-- 奖杯图标 -->
  <path d="M80,80 L85,85 L75,85 Z" fill="#f1c40f" stroke="#f39c12" stroke-width="1" />
  <rect x="78" y="85" width="4" height="5" fill="#f1c40f" stroke="#f39c12" stroke-width="1" />
  <path d="M75,90 L85,90" stroke="#f1c40f" stroke-width="2" />
</svg>