<svg xmlns="http://www.w3.org/2000/svg" viewBox="0 0 100 100" width="100" height="100">
  <!-- 王摄影 - 航拍摄影师头像 -->
  <defs>
    <linearGradient id="bg-gradient-3" x1="0%" y1="0%" x2="100%" y2="100%">
      <stop offset="0%" stop-color="#9b59b6" />
      <stop offset="100%" stop-color="#8e44ad" />
    </linearGradient>
  </defs>
  
  <!-- 背景圆形 -->
  <circle cx="50" cy="50" r="48" fill="url(#bg-gradient-3)" stroke="#fff" stroke-width="2" />
  
  <!-- 人物头像 -->
  <circle cx="50" cy="40" r="20" fill="#ecf0f1" />
  <path d="M50,60 L50,85 M35,70 L65,70" stroke="#ecf0f1" stroke-width="10" stroke-linecap="round" stroke-linejoin="round" />
  
  <!-- 摄影师特征 - 头发 -->
  <path d="M30,30 Q50,20 70,30" stroke="#34495e" stroke-width="5" fill="none" />
  
  <!-- 眼睛 -->
  <circle cx="43" cy="40" r="3" fill="#34495e" />
  <circle cx="57" cy="40" r="3" fill="#34495e" />
  
  <!-- 微笑 -->
  <path d="M42,48 Q50,53 58,48" stroke="#34495e" stroke-width="2" fill="none" />
  
  <!-- 装饰元素 - 相机 -->
  <rect x="15" y="15" width="15" height="10" rx="2" ry="2" fill="#34495e" stroke="#2c3e50" stroke-width="1" />
  <circle cx="22.5" cy="20" r="3" fill="#3498db" stroke="#2980b9" stroke-width="1" />
  <rect x="18" y="25" width="10" height="2" fill="#34495e" />
  
  <!-- 装饰元素 - 无人机 -->
  <circle cx="80" cy="20" r="5" fill="#34495e" />
  <path d="M75,15 L85,25 M75,25 L85,15" stroke="#34495e" stroke-width="2" />
  
  <!-- 装饰元素 - 摄影标志 -->
  <circle cx="80" cy="80" r="8" fill="#ecf0f1" stroke="#bdc3c7" stroke-width="1" />
  <circle cx="80" cy="80" r="4" fill="#bdc3c7" />
  <path d="M75,75 L85,85 M75,85 L85,75" stroke="#bdc3c7" stroke-width="0.5" />
</svg>